<svg width="386" height="377" fill="none" viewBox="0 0 386 377" xmlns="http://www.w3.org/2000/svg"><style>path{fill:#000}@media (prefers-color-scheme:dark){path{fill:#fff}}</style><g clip-path="url(#a)"><path d="m351.505 46.406-157.64 52.172L21.573 41.531 193.865.057l152.14 36.615H214.776c-3.552-4.24-11.562-7.214-20.911-7.214-12.62 0-22.839 5.401-22.839 12.073s10.219 12.073 22.839 12.073c9.349 0 17.359-2.974 20.911-7.213z" fill="currentColor"/><path d="m339.734 121.219-8.041-28.021a7.4 7.4 0 0 0 1.51-1.328 7.4 7.4 0 0 0 1.094-1.693 7.3 7.3 0 0 0 .583-1.922q.166-1.008.042-2.016a7.2 7.2 0 0 0-.511-1.942 7.3 7.3 0 0 0-1.02-1.735 7.25 7.25 0 0 0-3.235-2.328v-32.38l-5.052 1.49v30.89a7.2 7.2 0 0 0-1.776.938 7.35 7.35 0 0 0-2.474 3.125 7.4 7.4 0 0 0-.51 1.948 7.4 7.4 0 0 0 .041 2.01c.11.667.308 1.313.594 1.922a7.2 7.2 0 0 0 1.089 1.693q.665.765 1.51 1.328l-8.031 28.021a12.3 12.3 0 0 0-.474 2.859q-.038.726.01 1.453c.037.484.094.964.183 1.443.088.474.203.948.349 1.411.14.464.312.917.505 1.36q.295.663.661 1.297.369.623.808 1.208a12.7 12.7 0 0 0 3.166 2.963q.61.4 1.261.719a13 13 0 0 0 2.729.99c.474.109.948.192 1.432.25q.72.084 1.448.083.735.001 1.453-.083.729-.078 1.432-.25.71-.163 1.396-.412c.459-.166.901-.354 1.339-.573q.65-.32 1.26-.718a12.6 12.6 0 0 0 2.235-1.855 12.6 12.6 0 0 0 2.921-4.974c.141-.463.261-.937.349-1.411q.134-.717.183-1.443.047-.726.015-1.453a14 14 0 0 0-.151-1.448 13 13 0 0 0-.323-1.416M184.542 344.938c-44.792-48.662-110.568-67.974-146.427-75.214-15.292-3.083-25.625-12.156-25.625-22.37v-33.713s141.078 43.114 172.052 131.297" fill="currentColor"/><path d="M184.542 376.901c-24.433-26.547-59.146-38.708-81.74-44.094-13.646-3.255-22.755-11.51-22.755-20.802v-14.854s85.687 26.224 104.495 79.75" fill="currentColor"/><mask id="b" maskUnits="userSpaceOnUse" x="-1" y="130" width="187" height="179"><path d="M-.182 130.333h185.849V309H-.183z" fill="#fff"/></mask><g mask="url(#b)"><path d="M184.917 307.735c-45.714-63.49-121.782-93.86-163.787-106.391l-.276-.073C8.1 197.37-.182 187.615-.182 176.886V130.88s162.869 67.063 185.099 176.855" fill="currentColor"/></g><path d="M373.516 213.641S232.438 256.75 201.443 344.938c44.807-48.667 110.578-67.974 146.437-75.214 15.276-3.083 25.625-12.146 25.625-22.37z" fill="currentColor"/><path d="M305.958 297.162s-85.687 26.213-104.505 79.739c24.443-26.547 59.151-38.708 81.75-44.094 13.646-3.255 22.755-11.52 22.755-20.802zm80.219-166.277v46.011c0 10.729-8.281 20.484-21 24.349l-.276.083c-42.031 12.547-118.109 42.849-163.812 106.406 22.208-109.791 185.088-176.849 185.088-176.849M83.5 141.5l8-64.5 86.5 28.5-4.5 51.5 16-3.5L192 206l23.5-74.5L200 135l10-29.5L295 77l7.5 64L193 217z" fill="currentColor"/></g><defs><clipPath id="a"><path fill="#fff" d="M0 0h386v377H0z"/></clipPath></defs></svg>